<?xml version="1.0" standalone="no"?> <!DOCTYPE svg PUBLIC "-//W3C//DTD SVG 20010904//EN" "http://www.w3.org/TR/2001/REC-SVG-20010904/DTD/svg10.dtd"> <svg version="1.0" xmlns="http://www.w3.org/2000/svg" width="1050.000000pt" height="1077.000000pt" viewBox="0 0 1050.000000 1077.000000" preserveAspectRatio="xMidYMid meet"> <g transform="translate(0.000000,1077.000000) scale(0.100000,-0.100000)" fill="#fbf2e9" stroke="none"> <path d="M1700 10603 c-59 -23 -215 -102 -265 -136 -173 -116 -506 -424 -630 -582 -22 -27 -45 -56 -53 -64 -21 -22 -125 -161 -168 -226 -190 -285 -321 -590 -373 -875 -46 -247 -46 -539 1 -785 5 -27 14 -75 19 -105 14 -79 55 -226 96 -350 46 -139 157 -407 195 -475 6 -11 32 -60 58 -110 49 -94 165 -290 228 -385 30 -45 209 -288 287 -389 91 -119 365 -387 500 -488 199 -151 303 -214 550 -336 94 -46 188 -92 210 -101 22 -10 49 -21 60 -26 11 -5 61 -25 110 -45 50 -20 99 -40 110 -44 11 -5 38 -15 60 -24 77 -29 150 -58 170 -67 11 -5 61 -26 110 -46 90 -36 254 -111 310 -141 17 -9 37 -20 45 -24 43 -22 197 -115 208 -126 19 -19 43 -15 75 11 l29 23 -39 30 c-21 17 -76 52 -123 78 -47 27 -106 61 -133 77 -26 15 -50 28 -53 28 -3 0 -30 11 -60 25 -52 24 -148 67 -189 85 -11 5 -76 31 -145 60 -69 28 -133 55 -142 60 -10 6 -23 10 -30 10 -7 1 -31 9 -53 20 -22 11 -46 19 -53 20 -7 0 -20 4 -30 10 -9 5 -39 19 -67 30 -114 48 -112 47 -247 109 -47 22 -101 47 -120 55 -42 19 -138 72 -220 122 -248 150 -474 335 -661 543 -111 123 -321 394 -396 513 -170 267 -273 456 -371 683 -5 11 -18 41 -29 67 -12 26 -21 53 -21 60 0 8 -4 18 -9 24 -8 9 -65 185 -95 299 -9 33 -21 74 -26 90 -5 17 -12 50 -16 75 -3 25 -10 59 -14 75 -15 51 -40 312 -40 414 0 152 29 354 72 506 123 432 365 817 762 1209 67 66 161 153 211 193 49 41 100 83 113 93 76 64 127 63 69 -1 -125 -140 -295 -384 -413 -594 -25 -44 -113 -223 -134 -270 -11 -27 -25 -59 -30 -70 -20 -43 -79 -234 -95 -305 -9 -41 -20 -91 -25 -110 -5 -19 -14 -110 -20 -202 -12 -186 -1 -431 25 -571 26 -139 46 -230 60 -272 7 -22 22 -69 34 -105 25 -80 67 -195 85 -235 96 -208 213 -424 254 -467 63 -67 97 -12 112 182 13 164 52 353 100 490 5 14 18 59 30 100 22 75 45 148 60 185 4 11 16 43 25 70 16 44 25 68 65 160 4 11 27 60 51 109 39 81 43 87 56 70 14 -19 11 -69 -8 -144 -15 -61 -22 -427 -10 -570 16 -200 45 -401 86 -595 9 -44 23 -109 30 -145 19 -88 41 -184 59 -250 8 -30 20 -75 27 -100 7 -25 15 -49 19 -55 4 -5 11 -26 15 -45 4 -19 10 -39 13 -45 4 -5 18 -44 33 -85 22 -64 39 -104 83 -200 4 -8 12 -24 19 -35 7 -11 25 -43 41 -70 16 -27 33 -54 38 -60 5 -5 32 -41 60 -80 76 -102 176 -203 323 -326 157 -132 255 -187 255 -145 0 27 -63 219 -87 266 -7 14 -13 32 -13 40 0 9 -4 20 -8 25 -25 29 -68 232 -102 480 -12 92 -12 562 0 645 30 201 38 238 54 268 10 19 21 31 24 27 4 -4 12 -66 19 -138 21 -231 59 -439 128 -702 32 -122 85 -287 97 -300 4 -5 8 -16 8 -25 0 -8 6 -26 13 -40 7 -14 21 -47 31 -75 18 -48 37 -91 91 -209 14 -30 25 -60 25 -66 0 -6 11 -28 25 -50 14 -22 25 -43 25 -47 0 -4 15 -30 34 -58 18 -27 73 -111 121 -185 88 -135 208 -267 369 -405 85 -73 173 -125 212 -125 25 0 94 59 77 66 -38 17 -216 144 -291 209 -75 65 -121 113 -275 289 -30 34 -107 153 -107 165 0 6 -4 11 -8 11 -4 0 -15 15 -24 33 -8 17 -37 75 -64 127 -68 133 -125 260 -167 375 -40 110 -89 257 -99 295 -28 109 -41 162 -53 220 -7 36 -15 72 -19 80 -16 40 -54 330 -66 505 -18 254 -26 313 -45 335 -46 51 -90 2 -132 -145 -64 -226 -78 -300 -104 -571 -20 -211 14 -638 66 -839 29 -112 47 -172 61 -203 20 -46 18 -72 -6 -72 -10 0 -23 6 -27 13 -4 6 -30 30 -58 52 -78 62 -145 134 -210 229 -33 47 -65 92 -70 99 -23 26 -115 186 -143 247 -16 36 -44 110 -62 165 -18 55 -36 109 -41 120 -14 34 -29 92 -74 278 -59 244 -101 481 -134 763 -27 224 -8 582 46 889 20 116 24 246 7 252 -22 7 -72 -48 -126 -139 -64 -107 -143 -258 -176 -338 -13 -30 -32 -73 -43 -96 -10 -23 -19 -48 -19 -57 0 -9 -4 -19 -10 -22 -5 -3 -10 -14 -10 -23 0 -9 -6 -29 -14 -44 -8 -15 -17 -41 -21 -59 -4 -19 -11 -40 -16 -49 -4 -8 -18 -49 -29 -90 -12 -41 -25 -86 -30 -100 -5 -14 -16 -52 -25 -85 -9 -33 -23 -80 -30 -105 -7 -25 -16 -67 -20 -95 -3 -27 -10 -66 -15 -85 -5 -19 -12 -65 -15 -102 -7 -77 -19 -85 -51 -35 -19 27 -128 248 -154 312 -5 11 -17 40 -28 65 -10 25 -33 90 -50 145 -59 194 -59 192 -104 445 -18 100 -18 508 0 610 31 175 75 337 124 450 10 25 23 54 28 65 68 160 180 362 307 550 41 61 90 133 109 160 117 165 181 253 201 275 13 14 23 28 23 31 0 3 10 17 21 30 84 95 91 139 19 112z"/> <path d="M8856 10601 c-4 -6 7 -30 26 -54 92 -118 120 -154 138 -177 11 -14 46 -63 77 -110 31 -47 82 -119 113 -160 69 -94 140 -201 140 -211 0 -4 6 -14 13 -21 32 -33 237 -420 237 -447 0 -5 6 -22 14 -38 28 -56 33 -69 86 -258 47 -163 66 -409 51 -655 -6 -93 -16 -192 -22 -222 -45 -222 -71 -325 -90 -360 -5 -10 -9 -26 -9 -35 0 -10 -6 -29 -13 -43 -7 -14 -21 -47 -31 -75 -52 -140 -175 -384 -203 -403 -26 -17 -26 -17 -41 123 -12 104 -45 259 -76 350 -8 22 -22 67 -31 100 -35 122 -115 356 -144 420 -66 144 -87 189 -112 238 -118 233 -190 328 -230 307 -21 -12 -25 -58 -9 -106 5 -16 14 -63 20 -104 6 -41 17 -124 26 -185 46 -326 46 -584 -1 -920 -21 -157 -34 -238 -41 -255 -3 -8 -12 -49 -19 -90 -52 -283 -126 -549 -212 -759 -31 -77 -170 -319 -200 -349 -7 -7 -28 -36 -47 -65 -45 -67 -123 -149 -211 -220 -62 -49 -71 -54 -82 -40 -8 10 -9 22 -3 32 12 24 52 141 60 181 66 304 75 391 75 715 -1 213 -5 305 -17 385 -25 152 -56 297 -75 350 -3 8 -16 44 -29 79 -35 96 -64 119 -108 86 -21 -16 -21 -17 -45 -359 -5 -76 -14 -169 -20 -205 -23 -145 -39 -230 -69 -376 -13 -59 -34 -140 -55 -210 -8 -27 -23 -77 -32 -110 -10 -33 -21 -64 -26 -70 -5 -5 -9 -17 -9 -27 0 -9 -6 -32 -14 -50 -8 -18 -24 -58 -36 -88 -11 -30 -25 -64 -30 -75 -5 -11 -21 -47 -35 -80 -34 -76 -108 -228 -115 -235 -3 -3 -16 -25 -29 -50 -46 -87 -130 -209 -187 -272 -140 -155 -217 -231 -289 -286 -71 -54 -153 -110 -192 -132 -24 -13 -43 -27 -43 -31 0 -12 29 -38 60 -54 24 -13 31 -12 64 6 111 59 194 126 352 285 96 96 118 126 279 374 39 59 106 186 126 235 4 11 21 49 37 85 71 157 101 231 142 360 12 36 25 72 29 80 5 9 12 31 15 50 4 19 11 44 16 55 5 11 14 43 20 70 6 28 18 77 27 110 17 72 39 178 53 260 5 33 14 85 20 115 6 30 14 107 19 170 11 130 17 152 40 148 16 -3 28 -56 50 -223 46 -343 41 -532 -24 -920 -21 -127 -72 -299 -111 -373 -8 -15 -14 -33 -14 -40 0 -7 -4 -20 -9 -30 -15 -31 -41 -119 -41 -141 0 -11 6 -21 14 -21 50 0 245 149 411 315 93 92 237 271 252 313 4 9 10 19 13 22 8 5 100 196 100 206 0 3 6 20 14 37 18 40 67 188 96 287 12 41 25 86 30 100 5 14 18 70 30 125 11 55 25 116 30 135 6 19 15 62 21 95 6 33 17 94 25 135 50 257 64 417 64 710 1 215 -4 289 -27 453 -7 51 10 68 30 30 20 -35 64 -127 83 -173 9 -19 22 -48 29 -65 34 -76 45 -104 45 -117 0 -8 4 -18 8 -24 5 -5 19 -43 31 -84 13 -41 29 -92 37 -113 8 -20 14 -48 14 -62 0 -13 4 -26 9 -29 5 -4 12 -25 16 -49 4 -23 11 -46 15 -52 4 -5 11 -26 15 -45 4 -19 11 -48 16 -65 20 -67 49 -251 49 -314 0 -75 28 -179 52 -194 25 -17 60 13 105 90 100 168 187 341 233 463 11 30 25 64 29 75 5 11 16 43 25 70 8 28 20 66 27 85 25 77 63 252 79 360 40 279 40 402 0 705 -13 97 -52 258 -76 312 -8 17 -14 38 -14 46 0 9 -4 19 -10 22 -5 3 -10 13 -10 21 0 30 -122 290 -184 393 -20 32 -36 63 -36 69 0 6 -4 12 -8 14 -5 2 -32 44 -62 93 -30 50 -58 95 -62 100 -4 6 -36 48 -69 94 -34 47 -93 121 -130 165 -38 45 -69 84 -69 89 0 45 230 -134 441 -343 287 -286 530 -630 649 -920 12 -30 28 -68 35 -85 7 -16 21 -55 30 -85 9 -30 21 -66 26 -80 24 -66 58 -260 70 -404 8 -84 7 -161 0 -260 -14 -183 -49 -414 -71 -461 -5 -11 -13 -40 -19 -65 -19 -89 -32 -134 -40 -145 -5 -5 -11 -23 -15 -40 -8 -33 -49 -147 -76 -210 -9 -22 -23 -55 -31 -74 -22 -55 -165 -338 -216 -426 -66 -117 -204 -323 -307 -460 -288 -384 -546 -620 -916 -842 -90 -54 -451 -233 -469 -233 -6 0 -19 -4 -29 -10 -23 -13 -95 -43 -157 -66 -27 -10 -61 -24 -75 -31 -14 -7 -31 -13 -38 -13 -7 0 -20 -4 -30 -10 -9 -5 -57 -25 -107 -45 -49 -20 -99 -40 -110 -45 -26 -12 -101 -43 -144 -61 -131 -53 -428 -215 -490 -267 l-34 -28 35 -22 c41 -25 52 -27 70 -9 34 33 279 169 393 217 58 24 67 28 157 69 37 17 70 31 73 31 3 0 25 8 48 18 23 10 62 26 87 36 25 10 53 22 62 27 10 5 23 9 29 9 6 0 25 7 42 14 18 8 73 31 122 51 50 20 114 47 143 61 29 13 55 24 59 24 9 0 337 163 343 171 3 3 25 16 50 29 105 53 320 207 476 342 178 153 380 382 546 618 37 52 73 103 80 112 33 47 167 266 207 338 87 160 251 515 251 545 0 5 6 22 14 37 8 15 17 41 21 59 4 19 11 40 16 49 7 13 29 87 59 200 56 207 79 390 79 630 0 166 -4 216 -28 370 -14 87 -82 322 -111 385 -5 11 -18 43 -30 70 -34 81 -130 266 -161 313 -16 24 -29 46 -29 50 0 5 -7 17 -15 27 -9 11 -38 52 -65 90 -58 81 -82 113 -130 171 -19 23 -63 75 -97 115 -126 150 -383 388 -553 513 -68 49 -270 153 -319 162 -16 4 -32 1 -35 -5z"/> <path d="M1225 5308 c-18 -56 -30 -417 -17 -482 6 -28 15 -73 20 -101 61 -329 309 -821 529 -1052 132 -138 344 -287 454 -319 112 -33 279 -53 359 -43 41 5 125 13 185 19 112 10 288 33 359 47 29 6 44 16 57 38 31 53 27 55 -66 49 -80 -6 -85 -5 -85 14 0 11 7 26 16 33 102 84 122 323 48 559 -51 160 -171 295 -380 427 -33 21 -220 110 -309 148 -22 9 -53 23 -70 30 -45 20 -89 39 -200 85 -106 45 -211 93 -310 142 -33 16 -81 38 -106 48 -101 40 -300 144 -328 172 -17 17 -32 25 -36 18 -12 -20 23 -53 150 -140 28 -19 55 -39 62 -45 57 -48 123 -90 208 -129 44 -21 108 -51 141 -67 34 -16 64 -29 67 -29 3 0 36 -14 74 -31 85 -38 121 -54 153 -67 14 -6 46 -20 72 -31 26 -12 51 -21 57 -21 5 0 31 -11 58 -24 26 -13 98 -47 158 -76 145 -70 225 -124 310 -212 106 -110 156 -219 185 -399 11 -65 10 -86 -4 -149 -26 -115 -46 -144 -163 -240 -7 -6 -16 -10 -20 -10 -4 0 -20 -7 -36 -14 -91 -48 -272 -59 -437 -26 -116 22 -175 37 -198 49 -9 5 -48 24 -86 42 -149 70 -328 246 -462 457 -62 98 -196 372 -237 487 -79 219 -104 344 -112 560 -6 141 15 182 73 151 15 -8 43 -21 62 -29 19 -8 49 -20 65 -27 72 -30 129 -42 260 -56 463 -50 520 -57 615 -79 109 -26 251 -68 310 -92 19 -8 44 -18 55 -23 218 -90 486 -256 628 -388 47 -45 59 -47 63 -14 1 9 5 26 8 37 7 24 -10 44 -79 100 -28 21 -52 42 -55 46 -24 29 -247 165 -380 231 -135 67 -176 84 -287 119 -54 17 -107 35 -118 39 -75 29 -348 70 -690 105 -212 22 -308 40 -390 75 -96 41 -133 61 -149 79 -21 23 -45 27 -51 9z"/> <path d="M9332 5296 c-22 -21 -162 -82 -242 -105 -60 -17 -210 -41 -330 -51 -181 -16 -358 -38 -440 -53 -160 -31 -196 -39 -211 -47 -9 -5 -34 -12 -54 -16 -21 -4 -50 -13 -64 -20 -14 -8 -34 -14 -43 -14 -9 0 -29 -6 -45 -14 -15 -8 -39 -19 -53 -24 -63 -25 -253 -121 -330 -168 -128 -77 -205 -132 -275 -196 -60 -56 -63 -61 -58 -96 9 -68 10 -69 66 -16 93 89 177 151 329 242 77 47 308 162 324 162 3 0 20 6 37 14 47 21 155 56 172 56 8 0 23 4 33 10 18 10 94 25 202 40 36 5 85 14 110 20 25 5 97 14 160 20 275 25 387 39 420 50 44 15 100 38 122 50 10 6 25 10 34 10 9 0 32 9 50 21 21 12 41 18 54 14 19 -6 20 -15 20 -163 0 -153 -8 -221 -37 -332 -24 -91 -72 -239 -92 -283 -10 -23 -24 -58 -32 -77 -38 -95 -143 -288 -214 -394 -79 -118 -230 -283 -323 -353 -53 -39 -195 -109 -254 -123 -199 -51 -392 -64 -491 -35 -142 43 -244 123 -287 225 -21 50 -22 65 -17 180 6 128 18 179 68 284 49 104 191 246 306 306 26 14 64 34 83 45 19 12 55 29 80 40 25 10 73 31 108 47 35 15 66 28 68 28 3 0 26 9 52 21 26 11 56 24 67 29 11 5 55 25 98 44 44 20 82 36 86 36 4 0 25 9 47 19 21 10 69 33 107 50 37 17 95 44 130 60 34 16 94 53 133 83 40 29 80 59 90 66 107 72 164 118 164 129 0 18 -13 16 -42 -7 -37 -28 -536 -268 -698 -334 -36 -15 -78 -33 -95 -41 -16 -7 -48 -21 -70 -30 -22 -9 -49 -20 -60 -25 -36 -16 -109 -47 -144 -61 -19 -8 -91 -42 -159 -76 -177 -89 -277 -167 -370 -289 -35 -45 -92 -155 -92 -176 0 -7 -6 -25 -14 -39 -7 -14 -18 -63 -25 -110 -7 -46 -14 -96 -16 -110 -5 -36 20 -178 39 -214 9 -17 16 -34 16 -39 0 -4 14 -25 30 -46 47 -59 42 -64 -50 -57 -46 4 -82 2 -85 -3 -3 -5 1 -23 9 -39 19 -35 80 -56 196 -66 41 -3 95 -10 120 -15 25 -5 106 -14 180 -20 74 -6 146 -13 160 -14 41 -6 249 30 320 54 217 73 502 337 671 620 56 94 157 302 189 390 7 19 19 49 25 65 23 53 55 163 92 310 35 138 18 577 -22 574 -5 0 -20 -10 -33 -23z"/> <path d="M4115 4917 c-67 -48 -223 -168 -275 -211 -30 -26 -91 -73 -135 -105 -44 -33 -93 -72 -108 -87 -53 -52 -57 -77 -63 -358 l-6 -259 -37 -61 c-38 -63 -101 -190 -101 -203 0 -11 -39 -101 -83 -193 -19 -42 -39 -89 -43 -105 -4 -17 -12 -36 -18 -44 -19 -24 -21 -303 -3 -380 9 -36 19 -82 22 -101 4 -19 14 -57 22 -85 8 -27 19 -68 25 -90 6 -22 20 -60 30 -85 11 -25 23 -54 27 -65 53 -133 189 -376 260 -465 113 -142 240 -261 322 -303 88 -44 85 -37 93 -182 12 -222 53 -396 139 -575 80 -167 171 -281 303 -381 65 -49 96 -79 100 -97 11 -42 88 -152 151 -213 55 -54 183 -149 200 -149 4 0 20 -6 34 -14 39 -20 146 -56 167 -56 10 0 23 -5 30 -12 16 -16 258 -16 274 0 7 7 20 12 30 12 46 0 246 88 301 132 15 13 47 39 71 58 52 43 123 134 166 215 41 77 44 81 106 120 143 92 293 303 369 520 9 28 21 59 25 70 21 53 60 345 60 454 0 50 1 51 90 99 93 50 220 171 320 306 33 44 64 86 68 91 13 17 87 146 123 215 41 77 125 289 133 335 4 22 11 45 16 50 4 6 12 35 18 65 6 30 18 93 27 140 10 47 17 130 18 185 0 97 -18 211 -35 221 -4 3 -8 12 -8 21 0 8 -22 61 -49 117 -27 55 -58 128 -71 161 -23 66 -88 196 -126 257 -23 36 -24 45 -18 131 3 50 1 169 -4 263 -11 204 -17 218 -117 286 -22 15 -58 43 -80 63 -22 19 -43 35 -46 35 -3 0 -17 9 -30 21 -13 12 -51 42 -84 67 -69 54 -72 56 -104 82 -13 11 -27 20 -30 20 -3 0 -17 10 -31 23 -58 53 -94 67 -171 67 -41 0 -90 -5 -109 -10 -19 -5 -62 -16 -95 -25 -33 -9 -79 -21 -103 -26 -72 -18 -266 -123 -369 -201 l-98 -73 -300 -1 -300 -1 -55 42 c-138 105 -327 213 -405 230 -17 4 -39 10 -50 15 -11 5 -42 14 -70 20 -27 6 -68 15 -90 20 -22 5 -74 9 -115 9 -60 -1 -81 -5 -105 -22z m167 -57 c77 -15 226 -59 278 -81 74 -32 209 -107 250 -139 19 -15 67 -47 105 -71 l70 -44 306 -3 307 -3 68 37 c38 20 85 49 104 64 105 82 307 181 430 210 136 33 187 41 214 36 37 -7 204 -116 301 -196 125 -102 138 -114 201 -180 59 -60 63 -68 66 -115 4 -63 -8 -337 -17 -391 -6 -36 -2 -48 32 -105 62 -102 203 -396 203 -423 0 -9 4 -24 10 -34 17 -31 50 -111 50 -121 0 -6 11 -45 25 -88 14 -42 23 -83 21 -90 -3 -7 -10 -53 -16 -101 -13 -104 -34 -217 -56 -292 -20 -71 -74 -212 -85 -224 -5 -6 -9 -16 -9 -24 0 -19 -66 -153 -119 -242 -106 -178 -229 -318 -387 -441 -140 -110 -148 -124 -158 -291 -18 -318 -133 -595 -326 -788 -52 -53 -96 -86 -144 -109 -68 -34 -68 -34 -185 -29 -126 6 -189 21 -288 70 -97 49 -171 154 -175 250 -3 68 12 89 87 124 46 22 63 24 202 24 90 0 154 4 158 10 3 6 13 10 22 10 15 0 41 11 152 63 120 56 198 151 228 276 14 61 15 78 4 123 -45 186 -173 322 -393 418 -26 11 -52 20 -57 20 -19 0 -13 160 8 241 31 118 42 153 52 164 5 5 9 15 9 23 0 26 143 298 169 322 4 3 19 24 35 48 35 52 57 53 99 6 17 -21 48 -44 67 -52 161 -68 368 -70 525 -4 46 19 50 22 117 82 53 47 120 170 134 243 3 21 13 41 21 44 8 3 36 -5 63 -17 53 -25 84 -22 73 7 -38 102 -148 144 -388 145 -133 0 -161 -3 -245 -27 -85 -23 -261 -106 -295 -138 -7 -7 -28 -23 -47 -37 -32 -24 -132 -122 -174 -171 -43 -49 -133 -197 -182 -299 -79 -167 -125 -302 -141 -423 -11 -76 -24 -117 -39 -117 -4 0 -47 8 -97 17 -120 23 -321 23 -444 0 -108 -20 -117 -17 -124 46 -7 57 -32 174 -46 217 -7 19 -17 51 -23 70 -5 19 -16 49 -23 65 -131 301 -255 474 -434 608 -79 59 -137 91 -266 147 -139 61 -477 58 -603 -6 -33 -16 -94 -92 -89 -109 6 -18 34 -17 81 4 25 12 49 21 54 21 5 0 19 -30 32 -67 66 -198 159 -291 339 -337 168 -43 413 -1 497 85 58 60 58 60 148 -76 51 -77 156 -284 170 -335 4 -14 11 -34 16 -45 27 -64 43 -142 47 -228 5 -100 -2 -127 -34 -127 -21 0 -187 -85 -219 -112 -83 -71 -133 -131 -172 -211 -37 -76 -43 -204 -12 -286 35 -94 109 -168 222 -224 137 -66 181 -77 348 -80 125 -3 151 -7 187 -25 58 -30 73 -56 73 -123 0 -51 -5 -63 -52 -134 -47 -69 -61 -82 -118 -111 -98 -49 -164 -66 -290 -71 -105 -5 -120 -4 -165 17 -135 61 -270 206 -357 385 -89 182 -122 317 -144 589 -8 93 -20 120 -72 161 -231 178 -336 294 -461 505 -79 134 -98 174 -176 365 -12 30 -34 102 -54 180 -6 22 -16 69 -22 105 -6 36 -15 85 -19 110 -16 81 -11 172 11 245 22 71 26 83 53 145 8 19 17 46 21 60 16 61 191 418 221 451 13 14 14 31 9 91 -12 137 -14 353 -4 400 9 38 24 61 77 116 66 68 167 152 266 224 28 20 56 41 61 45 15 13 128 80 145 86 23 9 45 8 102 -3z m-241 -1736 c41 -9 78 -20 84 -25 5 -5 15 -9 22 -9 25 0 149 -67 221 -119 60 -44 72 -57 72 -81 0 -63 -80 -105 -245 -130 -68 -10 -93 -9 -160 4 -177 36 -258 111 -315 295 -13 42 -13 44 9 62 19 16 41 19 131 19 62 0 138 -7 181 -16z m2837 0 c19 -13 22 -22 17 -47 -11 -56 -50 -138 -92 -194 -65 -88 -244 -144 -392 -123 -85 12 -165 35 -198 56 -28 18 -55 68 -47 88 8 20 124 106 196 144 120 63 227 89 378 91 91 1 120 -2 138 -15z m-1437 -1173 c152 -19 330 -70 429 -122 73 -39 163 -119 185 -165 9 -19 15 -38 12 -40 -2 -2 -26 11 -53 29 -222 152 -402 151 -499 -3 -29 -45 -49 -141 -40 -188 13 -72 44 -109 130 -157 76 -43 188 -56 231 -29 87 58 59 214 -38 214 -39 0 -45 -23 -20 -68 30 -53 15 -76 -41 -67 -106 18 -177 77 -177 147 0 61 36 125 88 155 56 33 121 28 217 -17 55 -25 89 -52 158 -121 101 -104 104 -115 51 -195 -51 -77 -120 -120 -270 -169 -65 -21 -96 -25 -208 -25 -156 -1 -180 -8 -272 -75 -10 -7 -22 -5 -42 7 -97 62 -120 68 -265 68 -131 0 -188 9 -262 40 -111 48 -142 66 -184 109 -55 56 -76 100 -67 136 4 14 28 49 54 78 116 130 261 203 365 183 101 -19 165 -188 94 -253 -35 -33 -98 -62 -149 -69 -41 -6 -47 -4 -53 16 -5 15 0 31 15 52 28 39 23 62 -16 66 -42 4 -73 -24 -85 -76 -33 -147 95 -196 275 -105 60 30 98 66 117 110 23 55 24 103 0 170 -23 68 -61 117 -118 150 -40 23 -57 27 -122 26 -52 -1 -92 -7 -127 -21 -53 -21 -149 -76 -172 -99 -17 -17 -42 -17 -42 0 0 24 91 116 158 160 93 62 355 145 468 148 22 1 53 5 69 9 32 9 85 7 206 -9z m-103 -1236 c35 -76 150 -155 272 -189 74 -20 221 -46 260 -46 44 0 47 -23 9 -72 -115 -149 -249 -230 -467 -283 -100 -24 -154 -20 -297 22 -150 44 -270 121 -362 232 -71 86 -70 97 10 104 149 14 300 55 383 103 42 25 96 78 127 127 22 34 50 35 65 2z"/> </g> </svg>